<svg width="1379" height="489" viewBox="0 0 1379 489" fill="none" xmlns="http://www.w3.org/2000/svg">
<path d="M710.265 371.435L746.992 388.433V332.344L710.257 315.347L710.265 371.435Z" fill="#AD0F0A"/>
<path d="M868.095 371.435L904.822 388.433V332.344L868.095 315.347V371.435Z" fill="#AD0F0A"/>
<path d="M1025.93 371.435L1062.66 388.433V332.344L1025.92 315.347V371.435" fill="#AD0F0A"/>
<path d="M1102.12 350.597L1065.39 333.608L1104.85 315.347L1141.57 332.344L1102.12 350.597Z" fill="#AD0F0A"/>
<path d="M1183.77 371.435L1220.5 388.433V332.344L1183.77 315.347V371.435Z" fill="#AD0F0A"/>
<path d="M1259.96 350.597L1223.23 333.608L1262.69 315.347L1299.41 332.344L1259.96 350.597Z" fill="#AD0F0A"/>
<path d="M1341.6 371.435L1378.34 388.433V332.344L1341.6 315.347V371.435Z" fill="#AD0F0A"/>
<path d="M36.735 450.154L0 467.144V411.055L36.735 394.066V450.154Z" fill="#AD0F0A"/>
<path d="M236.76 374.177L273.488 391.175L234.03 409.436L197.295 392.439L236.76 374.177Z" fill="#9B1006"/>
<path d="M868.095 374.177L904.83 391.175L865.365 409.436L828.637 392.439L868.095 374.177Z" fill="#9B1006"/>
<path d="M1025.93 374.177L1062.66 391.175L1023.2 409.436L986.475 392.439L1025.93 374.177Z" fill="#9B1006"/>
<path d="M1023.2 375.441V375.359V353.339L986.475 336.35V392.439L1023.2 375.441Z" fill="#881002"/>
<path d="M1102.12 353.339L1065.39 336.35V392.439L1102.12 409.428V353.339Z" fill="#9B1006"/>
<path d="M1183.77 374.177L1220.5 391.175L1181.04 409.436L1144.3 392.439L1183.77 374.177Z" fill="#9B1006"/>
<path d="M1259.96 353.339L1223.23 336.35V392.439L1259.96 409.428V353.339Z" fill="#9B1006"/>
<path d="M1341.6 374.177L1378.34 391.175L1338.87 409.436L1302.14 392.439L1341.6 374.177Z" fill="#9B1006"/>
<path d="M591.885 432.058L628.612 415.061V471.149L591.885 488.147V432.058Z" fill="#9B1006"/>
<path d="M983.745 450.154L947.018 467.144L947.01 411.055L983.745 394.066V450.154Z" fill="#AD0F0A"/>
<path d="M1065.39 432.058L1102.12 415.061V471.149L1065.39 488.147V432.058Z" fill="#9B1006"/>
<path d="M1065.39 429.316L1102.12 412.319L1062.66 394.066L1025.93 411.055L1065.39 429.316Z" fill="#AD0F0A"/>
<path d="M1141.57 450.154L1104.85 467.144V411.055L1141.58 394.066V450.154" fill="#AD0F0A"/>
<path d="M1223.23 432.058L1259.96 415.061V471.149L1223.23 488.147V432.058Z" fill="#9B1006"/>
<path d="M1223.23 429.316L1259.95 412.319L1220.5 394.066L1183.77 411.055L1223.23 429.316Z" fill="#AD0F0A"/>
<path d="M1299.41 450.154L1262.69 467.144V411.055L1299.41 394.066V450.154Z" fill="#AD0F0A"/>
<path d="M1302.14 454.16V454.069V432.058L1338.87 415.061V471.149L1302.14 454.16Z" fill="#881002"/>
<path d="M236.76 213.766L273.488 230.755V174.667L236.753 157.677L236.76 213.766Z" fill="#AD0F0A"/>
<path d="M628.612 192.928L591.885 175.93L631.342 157.677L668.077 174.667L628.612 192.928Z" fill="#AD0F0A"/>
<path d="M710.265 213.766L746.992 230.755V174.667L710.265 157.677V213.766Z" fill="#AD0F0A"/>
<path d="M1025.93 213.766L1062.66 230.764V174.675L1025.92 157.677V213.766" fill="#AD0F0A"/>
<path d="M1102.12 192.928L1065.39 175.93L1104.85 157.677L1141.58 174.667L1102.12 192.928Z" fill="#AD0F0A"/>
<path d="M1183.77 213.766L1220.5 230.755V174.667L1183.77 157.677V213.766Z" fill="#AD0F0A"/>
<path d="M1259.96 192.928L1223.23 175.93L1262.69 157.677L1299.41 174.667L1259.96 192.928Z" fill="#AD0F0A"/>
<path d="M1341.61 213.766L1378.34 230.755V174.667L1341.6 157.677L1341.61 213.766Z" fill="#AD0F0A"/>
<path d="M236.76 216.508L273.488 233.498L234.03 251.759L197.295 234.761L236.76 216.508Z" fill="#9B1006"/>
<path d="M710.265 216.508L746.992 233.498L707.535 251.759L670.8 234.761L710.265 216.508Z" fill="#9B1006"/>
<path d="M868.095 216.508L904.83 233.498L865.372 251.759L828.637 234.761L868.095 216.508Z" fill="#9B1006"/>
<path d="M1183.77 216.508L1220.5 233.498L1181.04 251.759L1144.31 234.761L1183.77 216.508Z" fill="#9B1006"/>
<path d="M1259.96 195.67L1223.23 178.673V234.761L1259.96 251.759V195.67Z" fill="#9B1006"/>
<path d="M1341.6 216.508L1378.34 233.498L1338.88 251.759L1302.14 234.761L1341.6 216.508Z" fill="#9B1006"/>
<path d="M591.885 274.381L628.612 257.392V313.48L591.885 330.469V274.381Z" fill="#9B1006"/>
<path d="M591.885 271.639L628.613 254.649L589.155 236.388L552.428 253.386L591.885 271.639Z" fill="#AD0F0A"/>
<path d="M983.745 295.219L947.017 312.217L986.475 330.469L1023.2 313.48L983.745 295.219Z" fill="#9B1006"/>
<path d="M1065.39 274.381L1102.12 257.392V313.48L1065.39 330.469V274.381Z" fill="#9B1006"/>
<path d="M1065.39 271.639L1102.12 254.649L1062.66 236.388L1025.93 253.386L1065.39 271.639Z" fill="#AD0F0A"/>
<path d="M1141.58 292.477L1104.85 309.474V253.386L1141.58 236.388V292.477Z" fill="#AD0F0A"/>
<path d="M1141.58 295.219L1104.85 312.217L1144.31 330.469L1181.04 313.48L1141.58 295.219Z" fill="#9B1006"/>
<path d="M1223.23 274.381L1259.96 257.392V313.48L1223.23 330.469V274.381Z" fill="#9B1006"/>
<path d="M1223.23 271.639L1259.95 254.649L1220.5 236.388L1183.77 253.386L1223.23 271.639Z" fill="#AD0F0A"/>
<path d="M1299.41 292.477L1262.69 309.474V253.386L1299.42 236.388V292.477" fill="#AD0F0A"/>
<path d="M1299.41 295.219L1262.69 312.217L1302.14 330.469L1338.88 313.48L1299.41 295.219Z" fill="#9B1006"/>
<path d="M868.102 371.435L904.83 388.433V332.344L868.095 315.347V371.435" fill="#AD0F0A"/>
<path d="M1025.93 371.435L1062.66 388.433V332.344L1025.93 315.347V371.435Z" fill="#AD0F0A"/>
<path d="M1102.12 350.597L1065.39 333.608L1104.85 315.347L1141.58 332.344L1102.12 350.597Z" fill="#AD0F0A"/>
<path d="M1183.77 371.435L1220.5 388.433V332.344L1183.77 315.347V371.435Z" fill="#AD0F0A"/>
<path d="M1259.96 350.597L1223.23 333.608L1262.69 315.347L1299.41 332.344L1259.96 350.597Z" fill="#AD0F0A"/>
<path d="M1341.61 371.435L1378.34 388.433V332.344L1341.61 315.347V371.435Z" fill="#AD0F0A"/>
<path d="M98.8576 274.769L62.1301 257.78L101.588 239.519L138.323 256.516L98.8576 274.769Z" fill="#AD0F0A"/>
<path d="M470.783 35.2505L434.048 18.2612L473.513 0L510.24 16.9976L470.783 35.2505Z" fill="#AD0F0A"/>
<path d="M710.265 56.0886L746.992 73.0862V16.9976L710.265 0V56.0886Z" fill="#AD0F0A"/>
<path d="M786.45 35.2505L749.722 18.2612L789.18 0L825.907 16.9976L786.45 35.2505Z" fill="#AD0F0A"/>
<path d="M944.287 35.2505L907.56 18.2612L947.017 0L983.745 16.9976L944.287 35.2505Z" fill="#AD0F0A"/>
<path d="M1102.12 35.2505L1065.39 18.2612L1104.85 0L1141.58 16.9976L1102.12 35.2505Z" fill="#AD0F0A"/>
<path d="M1183.77 56.0886L1220.5 73.0862V16.9976L1183.77 0V56.0886Z" fill="#AD0F0A"/>
<path d="M1259.96 35.2505L1223.23 18.2612L1262.69 0L1299.41 16.9976L1259.96 35.2505Z" fill="#AD0F0A"/>
<path d="M470.783 37.9926L434.055 21.0033V77.0919L470.783 94.0812V37.9926Z" fill="#9B1006"/>
<path d="M628.612 37.9926L591.885 21.0033V77.0919L628.62 94.0812V37.9926" fill="#9B1006"/>
<path d="M786.45 37.9926L749.722 21.0033V77.0919L786.45 94.0812V37.9926Z" fill="#9B1006"/>
<path d="M868.102 58.8307L904.83 75.8282L865.372 94.0894L828.637 77.0919L868.102 58.8307Z" fill="#9B1006"/>
<path d="M352.403 134.808L315.675 151.797V95.7083L352.403 78.719V134.808Z" fill="#AD0F0A"/>
<path d="M352.403 137.55L315.675 154.539L355.133 172.8L391.868 155.803L352.403 137.55Z" fill="#9B1006"/>
<path d="M1102.12 37.9926L1065.39 21.0033V77.0919L1102.12 94.0812V37.9926" fill="#9B1006"/>
<path d="M1183.77 58.8307L1220.5 75.8282L1181.04 94.0894L1144.31 77.0919L1183.77 58.8307Z" fill="#9B1006"/>
<path d="M1259.96 37.9926L1223.23 21.0033V77.0919L1259.96 94.0812V37.9926Z" fill="#9B1006"/>
<path d="M1341.61 58.8307L1378.34 75.8282L1338.88 94.0894L1302.14 77.0919L1341.61 58.8307Z" fill="#9B1006"/>
<path d="M591.885 113.97L628.613 96.972L589.155 78.719L552.428 95.7083L591.885 113.97Z" fill="#AD0F0A"/>
<path d="M749.722 113.97L786.45 96.972L746.992 78.719L710.265 95.7083L749.722 113.97Z" fill="#AD0F0A"/>
<path d="M1065.39 116.712L1102.12 99.714V155.803L1065.39 172.8V116.712Z" fill="#9B1006"/>
<path d="M1223.23 116.712L1259.96 99.714V155.803L1223.23 172.8V116.712Z" fill="#9B1006"/>
<path d="M1223.23 113.97L1259.95 96.972L1220.5 78.719L1183.77 95.7083L1223.23 113.97Z" fill="#AD0F0A"/>
<path d="M1299.41 134.808L1262.69 151.797V95.7083L1299.42 78.719V134.808" fill="#AD0F0A"/>
<path d="M1299.41 137.55L1262.69 154.539L1302.14 172.8L1338.88 155.803L1299.41 137.55Z" fill="#9B1006"/>
<path d="M236.76 213.766L273.488 230.755V174.667L236.76 157.677V213.766Z" fill="#AD0F0A"/>
<path d="M710.265 213.766L746.992 230.755V174.667L710.265 157.677V213.766Z" fill="#AD0F0A"/>
<path d="M1102.12 192.928L1065.39 175.93L1104.85 157.677L1141.58 174.667L1102.12 192.928Z" fill="#AD0F0A"/>
<path d="M1183.77 213.766L1220.5 230.755V174.667L1183.77 157.677V213.766Z" fill="#AD0F0A"/>
<path d="M1259.96 192.928L1223.23 175.93L1262.69 157.677L1299.42 174.667L1259.96 192.928Z" fill="#AD0F0A"/>
<path d="M1341.61 213.766L1378.34 230.755V174.667L1341.61 157.677V213.766Z" fill="#AD0F0A"/>
<path d="M373.2 284.664L409.927 267.674V323.763L373.2 340.752V284.664Z" fill="#9B1006"/>
</svg>
